<svg height="35" viewBox="0 0 36 35" width="36" xmlns="http://www.w3.org/2000/svg" xmlns:xlink="http://www.w3.org/1999/xlink"><linearGradient id="a" x1="0%" x2="100%" y1="50%" y2="50%"><stop offset="0" stop-color="#4800ac"/><stop offset="1" stop-color="#ff0080"/></linearGradient><path d="m42.8777576 25.5259557h-2.8980378l-5.9147902-13.8896314c-.227547-.5322284-.8434666-.7792215-1.375695-.5516746s-.7792216.8434665-.5516747 1.375695l5.5865788 13.065611h-19.3365458l5.5865788-13.065611c.2275469-.5322285-.0194462-1.1481481-.5516747-1.3756951-.5322284-.2275469-1.148148.0194462-1.375695.5516747l-5.9357399 13.8896314h-2.9888197c-.933857.0060132-1.8166597.4270692-2.4090537 1.1490073-.592394.721938-.8329996 1.6699558-.6565814 2.5870173l2.6606082 13.8896314c.2871594 1.4782953 1.5806592 2.546457 3.0865847 2.5488766h24.3714499c1.5059255-.0024196 2.7994254-1.0705813 3.0865847-2.5488766l2.6815579-13.8896314c.1764182-.9170615-.0641874-1.8650793-.6565814-2.5870173-.592394-.7219381-1.4751967-1.1429941-2.4090537-1.1490073zm-9.2318214 2.0949671-.7891043 3.9315548h-9.7765128l-.7891043-3.9315548zm-21.0195026 3.9315548-.5167586-2.6885411c-.0586596-.3075308.0233139-.6251783.2234632-.8659197.1989235-.241956.4968436-.3806429.8100539-.377094h2.094967l-.5377082 1.2639634c-.2275469.5322284.0194463 1.1481481.5516747 1.375695.5322284.227547 1.1481481-.0194462 1.375695-.5516746l.8868694-2.0949671h2.6606081l.7891043 3.9315548zm.4050269 2.094967h8.3240024l.7891042 3.9315548h-8.3798681zm2.7932894 9.9580766c-.5021537-.0012171-.9327997-.3586239-1.0265338-.8519532l-.593574-3.0796016h8.3798681l.7402217 3.9245716zm14.6647693 0h-5.0069713l-.7611713-3.938538h6.5223307zm1.2011144-6.0265218h-7.4092001l-.7891042-3.9315548h8.9105931zm9.5670161 5.1745686c-.0937341.4933293-.5243801.8507361-1.0265338.8519532h-7.6605962l.7891043-3.9315548h8.4427171zm.9217855-5.1815518h-8.3798681l.7891042-3.9315548h8.3798682zm1.6829569-8.7150629-.5167586 2.688541h-8.3798681l.7891042-3.9315548h2.7932894l.8868694 2.0949671c.1471971.3442914.46689.5839011.8386537.6285704s.7391182-.112388.9636848-.4120102c.2245666-.2996221.2722282-.6962892.1250312-1.0405806l-.5377082-1.2639634h2.0530677c.3132102-.0035489.6111304.135138.8100539.377094.1927588.244238.2669638.561528.2025135.8659197z" fill="url(#a)" transform="translate(-10 -11)"/></svg>