<svg xmlns="http://www.w3.org/2000/svg" xmlns:xlink="http://www.w3.org/1999/xlink" version="1.1" x="0px" y="0px" viewBox="0 0 34 34" style="enable-background:new 0 0 34 34;" xml:space="preserve"><title>자산 297</title><g><g><path d="M18.4,17l6.4-6.4c0.4-0.4,0.4-1,0-1.3c-0.4-0.4-1-0.4-1.3,0L17,15.7l-6.4-6.4c-0.4-0.3-1-0.3-1.3,0.1    c-0.3,0.4-0.3,0.9,0,1.2l6.4,6.4l-6.4,6.4c-0.4,0.4-0.4,1,0,1.3c0.4,0.4,1,0.4,1.3,0l0,0l6.4-6.4l6.4,6.4c0.4,0.4,1,0.4,1.3,0    c0.4-0.4,0.4-1,0-1.3L18.4,17z"></path></g></g></svg>