<svg xmlns="http://www.w3.org/2000/svg" xmlns:xlink="http://www.w3.org/1999/xlink" version="1.1" x="0px" y="0px" viewBox="0 0 100 100" style="enable-background:new 0 0 100 100;" xml:space="preserve"><g><path d="M65.544,31.313c-3.75,0-6.8,3.05-6.8,6.8c0,0.994,0.806,1.8,1.8,1.8s1.8-0.806,1.8-1.8c0-1.765,1.436-3.2,3.2-3.2   s3.2,1.436,3.2,3.2c0,0.994,0.806,1.8,1.8,1.8s1.8-0.806,1.8-1.8C72.344,34.363,69.293,31.313,65.544,31.313z"></path><path d="M34.453,31.313c-3.75,0-6.8,3.05-6.8,6.8c0,0.994,0.806,1.8,1.8,1.8s1.8-0.806,1.8-1.8c0-1.765,1.436-3.2,3.2-3.2   s3.2,1.436,3.2,3.2c0,0.994,0.806,1.8,1.8,1.8s1.8-0.806,1.8-1.8C41.252,34.363,38.202,31.313,34.453,31.313z"></path><path d="M83.263,17.83c-0.158-1.094-1.173-1.843-2.267-1.692l-6.204,0.9C68.998,9.713,60.041,5,49.999,5   c-10.043,0-19,4.713-24.795,12.037l-6.201-0.9c-1.09-0.152-2.108,0.599-2.267,1.692c-0.158,1.093,0.599,2.108,1.692,2.267   l4.263,0.619c-2.732,4.674-4.305,10.104-4.305,15.898V93c0,1.104,0.896,2,2,2h29.695c0.688,0,1.369-0.03,2.046-0.074   c0.003,0,0.005,0.001,0.008,0.001h20.908c1.104,0,2-0.896,2-2s-0.896-2-2-2h-7.491C75.128,85.51,81.61,75.236,81.61,63.471V36.612   c0-5.793-1.574-11.223-4.305-15.897l4.266-0.619C82.664,19.938,83.421,18.922,83.263,17.83z M49.999,9   c7.965,0,15.149,3.394,20.193,8.808C61.341,19.504,53.53,22.445,50,31.203c-3.53-8.759-11.343-11.699-20.195-13.396   C34.85,12.394,42.033,9,49.999,9z M28.939,60.162c0.069,0.282,0.193,0.554,0.39,0.794c2.633,3.212,4.335,8.415,4.335,13.253   c0,8.906-4.995,16.195-11.277,16.739V51.979C24.108,55.059,26.327,57.824,28.939,60.162z M77.61,63.471   C77.61,78.65,65.261,91,50.082,91H31.049c3.999-3.784,6.614-9.892,6.614-16.792c0-3.142-0.607-6.347-1.663-9.263   c4.223,2.095,8.974,3.278,13.998,3.278c11.856,0,22.202-6.564,27.612-16.245V63.471z M49.999,64.224   c-15.226,0-27.612-12.387-27.612-27.612c0-5.634,1.7-10.877,4.608-15.25C39.362,23.446,48,26.611,48,43.224v3.31   c0,1.104,0.896,2,2,2s2-0.896,2-2v-3.31c0-16.612,8.637-19.777,21.003-21.861c2.908,4.373,4.608,9.615,4.608,15.249   C77.61,51.837,65.224,64.224,49.999,64.224z"></path><path d="M46.755,72.064h-5.093c-0.469,0-0.764,0.504-0.537,0.913l2.547,4.573c0.234,0.42,0.839,0.42,1.073,0l2.547-4.573   C47.519,72.567,47.223,72.064,46.755,72.064z"></path><path d="M56.469,72.064h-5.093c-0.469,0-0.764,0.504-0.537,0.913l2.547,4.573c0.234,0.42,0.839,0.42,1.073,0l2.547-4.573   C57.233,72.567,56.937,72.064,56.469,72.064z"></path><path d="M66.182,72.064h-5.093c-0.469,0-0.764,0.504-0.537,0.913l2.547,4.573c0.234,0.42,0.839,0.42,1.073,0l2.547-4.573   C66.947,72.567,66.651,72.064,66.182,72.064z"></path><path d="M51.639,79.814h-5.093c-0.469,0-0.764,0.504-0.537,0.913l2.547,4.573c0.234,0.42,0.839,0.42,1.073,0l2.547-4.573   C52.403,80.317,52.107,79.814,51.639,79.814z"></path><path d="M61.352,79.814h-5.093c-0.469,0-0.764,0.504-0.537,0.913l2.547,4.573c0.234,0.42,0.839,0.42,1.073,0l2.547-4.573   C62.117,80.317,61.821,79.814,61.352,79.814z"></path></g></svg>