<svg enable-background="new 0 0 100 100" viewBox="0 0 100 100" xmlns="http://www.w3.org/2000/svg"><path d="m65.544 31.313c-3.75 0-6.8 3.05-6.8 6.8 0 .994.806 1.8 1.8 1.8s1.8-.806 1.8-1.8c0-1.765 1.436-3.2 3.2-3.2s3.2 1.436 3.2 3.2c0 .994.806 1.8 1.8 1.8s1.8-.806 1.8-1.8c0-3.75-3.051-6.8-6.8-6.8z"/><path d="m34.453 31.313c-3.75 0-6.8 3.05-6.8 6.8 0 .994.806 1.8 1.8 1.8s1.8-.806 1.8-1.8c0-1.765 1.436-3.2 3.2-3.2s3.2 1.436 3.2 3.2c0 .994.806 1.8 1.8 1.8s1.8-.806 1.8-1.8c-.001-3.75-3.051-6.8-6.8-6.8z"/><path d="m83.263 17.83c-.158-1.094-1.173-1.843-2.267-1.692l-6.204.9c-5.794-7.325-14.751-12.038-24.793-12.038-10.043 0-19 4.713-24.795 12.037l-6.201-.9c-1.09-.152-2.108.599-2.267 1.692-.158 1.093.599 2.108 1.692 2.267l4.263.619c-2.732 4.674-4.305 10.104-4.305 15.898v56.387c0 1.104.896 2 2 2h29.695c.688 0 1.369-.03 2.046-.074.003 0 .005.001.008.001h20.908c1.104 0 2-.896 2-2s-.896-2-2-2h-7.491c9.576-5.417 16.058-15.691 16.058-27.456v-26.859c0-5.793-1.574-11.223-4.305-15.897l4.266-.619c1.093-.158 1.85-1.174 1.692-2.266zm-33.264-8.83c7.965 0 15.149 3.394 20.193 8.808-8.851 1.696-16.662 4.637-20.192 13.395-3.53-8.759-11.343-11.699-20.195-13.396 5.045-5.413 12.228-8.807 20.194-8.807zm-21.06 51.162c.069.282.193.554.39.794 2.633 3.212 4.335 8.415 4.335 13.253 0 8.906-4.995 16.195-11.277 16.739v-38.969c1.721 3.08 3.94 5.845 6.552 8.183zm48.671 3.309c0 15.179-12.349 27.529-27.528 27.529h-19.033c3.999-3.784 6.614-9.892 6.614-16.792 0-3.142-.607-6.347-1.663-9.263 4.223 2.095 8.974 3.278 13.998 3.278 11.856 0 22.202-6.564 27.612-16.245zm-27.611.753c-15.226 0-27.612-12.387-27.612-27.612 0-5.634 1.7-10.877 4.608-15.25 12.367 2.084 21.005 5.249 21.005 21.862v3.31c0 1.104.896 2 2 2s2-.896 2-2v-3.31c0-16.612 8.637-19.777 21.003-21.861 2.908 4.373 4.608 9.615 4.608 15.249-.001 15.225-12.387 27.612-27.612 27.612z"/><path d="m46.755 72.064h-5.093c-.469 0-.764.504-.537.913l2.547 4.573c.234.42.839.42 1.073 0l2.547-4.573c.227-.41-.069-.913-.537-.913z"/><path d="m56.469 72.064h-5.093c-.469 0-.764.504-.537.913l2.547 4.573c.234.42.839.42 1.073 0l2.547-4.573c.227-.41-.069-.913-.537-.913z"/><path d="m66.182 72.064h-5.093c-.469 0-.764.504-.537.913l2.547 4.573c.234.42.839.42 1.073 0l2.547-4.573c.228-.41-.068-.913-.537-.913z"/><path d="m51.639 79.814h-5.093c-.469 0-.764.504-.537.913l2.547 4.573c.234.42.839.42 1.073 0l2.547-4.573c.227-.41-.069-.913-.537-.913z"/><path d="m61.352 79.814h-5.093c-.469 0-.764.504-.537.913l2.547 4.573c.234.42.839.42 1.073 0l2.547-4.573c.228-.41-.068-.913-.537-.913z"/></svg>