<svg xmlns="http://www.w3.org/2000/svg" xmlns:xlink="http://www.w3.org/1999/xlink" version="1.1" x="0px" y="0px" viewBox="0 0 34 34" style="enable-background:new 0 0 34 34;" xml:space="preserve"><title>자산 284</title><g><path d="M25.4,15.8H8.9c-0.6,0.1-1.1,0.5-1.1,1.1c-0.1,0.7,0.4,1.3,1.1,1.3h16.5c0.6-0.1,1.1-0.5,1.1-1.1   C26.5,16.4,26,15.8,25.4,15.8z"></path><path d="M8.9,12.1h16.5c0.6-0.1,1.1-0.5,1.1-1.1c0.1-0.7-0.4-1.3-1.1-1.3H8.9c-0.6,0.1-1.1,0.5-1.1,1.1C7.7,11.4,8.2,12,8.9,12.1z"></path><path d="M25.4,21.9H8.9c-0.1,0-0.1,0-0.2,0C8,22,7.5,22.6,7.5,23.2c0.1,0.7,0.7,1.2,1.3,1.1h16.5c0.6-0.1,1.1-0.5,1.1-1.1   C26.5,22.6,26,22,25.4,21.9z"></path></g></svg>