<svg viewBox="0 0 100 100" xmlns="http://www.w3.org/2000/svg"><path d="m71.3099412 34.1900588c1.4856784-1.4856784 1.4830605-3.8970571.0045067-5.3756109l-.1288958-.1288958c-1.4831895-1.4831895-3.8851344-1.4859698-5.3756109.0045067l-15.1073097 15.1073097c-.3880527.3880527-1.0237336.3815294-1.405263 0l-15.1073097-15.1073097c-1.4856784-1.4856784-3.8970571-1.4830605-5.3756109-.0045067l-.1288958.1288958c-1.4831895 1.4831895-1.4859698 3.8851344.0045067 5.3756109l15.1073097 15.1073097c.3880527.3880527.3815294 1.0237336 0 1.405263l-15.1073097 15.1073097c-1.4856784 1.4856784-1.4830605 3.8970571-.0045067 5.3756109l.1288958.1288958c1.4831895 1.4831895 3.8851344 1.4859698 5.3756109-.0045067l15.1073097-15.1073097c.3880527-.3880527 1.0237336-.3815294 1.405263 0l15.1073097 15.1073097c1.4856784 1.4856784 3.8970571 1.4830605 5.3756109.0045067l.1288958-.1288958c1.4831895-1.4831895 1.4859698-3.8851344-.0045067-5.3756109l-15.1073097-15.1073097c-.3880527-.3880527-.3815294-1.0237336 0-1.405263z"/></svg>